<?xml version="1.0" encoding="UTF-8"?>
<svg width="120" height="120" viewBox="0 0 120 120" fill="none" xmlns="http://www.w3.org/2000/svg">
  <circle cx="60" cy="60" r="60" fill="#FFFFFF"/>
  <g transform="translate(25, 15)">
    <path d="M35 10L10 25V45C10 65.4264 20.3395 84.3372 35 90C49.6605 84.3372 60 65.4264 60 45V25L35 10Z" fill="#9945FF"/>
    <path d="M35 20L20 30V45C20 60 25 70 35 75C45 70 50 60 50 45V30L35 20Z" fill="#7B2BFF"/>
    <path d="M35 30L25 40V50C25 60 30 65 35 70C40 65 45 60 45 50V40L35 30Z" fill="#B980FF"/>
    <path d="M35 40L30 45V50C30 55 32.5 57.5 35 60C37.5 57.5 40 55 40 50V45L35 40Z" fill="#FFFFFF"/>
    <path d="M35 45L32.5 47.5V50C32.5 52.5 33.75 53.75 35 55C36.25 53.75 37.5 52.5 37.5 50V47.5L35 45Z" fill="#9945FF"/>
  </g>
</svg>
