<?xml version="1.0" encoding="UTF-8"?>
<svg width="120" height="120" viewBox="0 0 120 120" fill="none" xmlns="http://www.w3.org/2000/svg">
  <circle cx="60" cy="60" r="60" fill="#FFFFFF"/>
  <g transform="translate(20, 30)">
    <path d="M5 15C5 12.2386 7.23858 10 10 10H70C72.7614 10 75 12.2386 75 15V55C75 57.7614 72.7614 60 70 60H10C7.23858 60 5 57.7614 5 55V15Z" fill="#9945FF"/>
    <path d="M5 20H75V50H5V20Z" fill="#B980FF"/>
    <path d="M75 25H65C60 25 55 30 55 35C55 40 60 45 65 45H75V25Z" fill="#14F195"/>
    <circle cx="65" cy="35" r="5" fill="#FFFFFF"/>
  </g>
</svg>
