<?xml version="1.0" encoding="UTF-8"?>
<svg width="120" height="120" viewBox="0 0 120 120" fill="none" xmlns="http://www.w3.org/2000/svg">
  <circle cx="60" cy="60" r="60" fill="#FFFFFF"/>
  <g transform="translate(20, 30)">
    <path d="M15 15H65L75 25H25L15 15Z" fill="#9945FF"/>
    <path d="M15 35H65L75 45H25L15 35Z" fill="#9945FF"/>
    <path d="M15 55H65L75 65H25L15 55Z" fill="#9945FF"/>
    <path d="M15 15H65L75 25H25L15 15Z" stroke="#B980FF" stroke-width="2"/>
    <path d="M15 35H65L75 45H25L15 35Z" stroke="#B980FF" stroke-width="2"/>
    <path d="M15 55H65L75 65H25L15 55Z" stroke="#B980FF" stroke-width="2"/>
    <circle cx="20" cy="20" r="5" fill="#14F195"/>
    <circle cx="20" cy="40" r="5" fill="#14F195"/>
    <circle cx="20" cy="60" r="5" fill="#14F195"/>
  </g>
</svg>
