<?xml version="1.0" encoding="UTF-8"?>
<svg width="120" height="120" viewBox="0 0 120 120" fill="none" xmlns="http://www.w3.org/2000/svg">
  <circle cx="60" cy="60" r="60" fill="#FFFFFF"/>
  <g transform="translate(20, 15)">
    <path d="M15 25H45V75C45 77.7614 42.7614 80 40 80H20C17.2386 80 15 77.7614 15 75V25Z" fill="#9945FF"/>
    <path d="M45 25H55V65C55 67.7614 52.7614 70 50 70H45V25Z" fill="#B980FF"/>
    <path d="M55 35H65C67.7614 35 70 37.2386 70 40V60C70 62.7614 67.7614 65 65 65H55V35Z" fill="#14F195"/>
    <path d="M25 40H35M30 35V45" stroke="#FFFFFF" stroke-width="3" stroke-linecap="round"/>
    <path d="M25 60H35" stroke="#FFFFFF" stroke-width="3" stroke-linecap="round"/>
    <path d="M50 45V55" stroke="#FFFFFF" stroke-width="3" stroke-linecap="round"/>
    <path d="M60 45V55" stroke="#FFFFFF" stroke-width="3" stroke-linecap="round"/>
    <path d="M15 25C15 20 20 15 25 15H50C55 15 55 20 55 25H15Z" fill="#B980FF"/>
    <path d="M30 15V10C30 7.23858 32.2386 5 35 5H40C42.7614 5 45 7.23858 45 10V15H30Z" fill="#9945FF"/>
  </g>
</svg>
