<?xml version="1.0" encoding="UTF-8"?>
<svg width="120" height="120" viewBox="0 0 120 120" fill="none" xmlns="http://www.w3.org/2000/svg">
  <circle cx="60" cy="60" r="60" fill="#FFFFFF"/>
  <g transform="translate(20, 25)">
    <path d="M5 60V10C5 7.23858 7.23858 5 10 5H70C72.7614 5 75 7.23858 75 10V60C75 62.7614 72.7614 65 70 65H10C7.23858 65 5 62.7614 5 60Z" fill="#9945FF"/>
    <rect x="10" y="10" width="60" height="50" rx="2" fill="#B980FF"/>
    <path d="M15 50L25 35L35 45L45 25L55 40L65 20" stroke="#FFFFFF" stroke-width="3" stroke-linecap="round" stroke-linejoin="round"/>
    <circle cx="25" cy="35" r="3" fill="#14F195"/>
    <circle cx="35" cy="45" r="3" fill="#14F195"/>
    <circle cx="45" cy="25" r="3" fill="#14F195"/>
    <circle cx="55" cy="40" r="3" fill="#14F195"/>
    <circle cx="65" cy="20" r="3" fill="#14F195"/>
  </g>
</svg>
