<?xml version="1.0" encoding="UTF-8"?>
<svg width="120" height="120" viewBox="0 0 120 120" fill="none" xmlns="http://www.w3.org/2000/svg">
  <circle cx="60" cy="60" r="60" fill="#FFFFFF"/>
  <g transform="translate(20, 20)">
    <circle cx="20" cy="20" r="15" fill="#9945FF"/>
    <circle cx="20" cy="60" r="15" fill="#9945FF"/>
    <circle cx="60" cy="40" r="15" fill="#9945FF"/>
    <path d="M20 35V45" stroke="#B980FF" stroke-width="5" stroke-linecap="round"/>
    <path d="M30 25L50 35" stroke="#B980FF" stroke-width="5" stroke-linecap="round"/>
    <path d="M30 55L50 45" stroke="#B980FF" stroke-width="5" stroke-linecap="round"/>
    <circle cx="20" cy="20" r="8" fill="#B980FF"/>
    <circle cx="20" cy="60" r="8" fill="#B980FF"/>
    <circle cx="60" cy="40" r="8" fill="#B980FF"/>
    <path d="M15 20H25M20 15V25" stroke="#FFFFFF" stroke-width="2" stroke-linecap="round"/>
    <path d="M15 60H25" stroke="#FFFFFF" stroke-width="2" stroke-linecap="round"/>
    <path d="M55 40H65" stroke="#FFFFFF" stroke-width="2" stroke-linecap="round"/>
    <path d="M60 35V45" stroke="#FFFFFF" stroke-width="2" stroke-linecap="round"/>
    <path d="M30 20L40 15L50 20L60 15L70 20" stroke="#14F195" stroke-width="2" stroke-linecap="round" stroke-linejoin="round"/>
  </g>
</svg>
