<?xml version="1.0" encoding="UTF-8"?>
<svg width="120" height="120" viewBox="0 0 120 120" fill="none" xmlns="http://www.w3.org/2000/svg">
  <circle cx="60" cy="60" r="60" fill="#FFFFFF"/>
  <g transform="translate(25, 25)">
    <path d="M5 45V10C5 7.23858 7.23858 5 10 5H60C62.7614 5 65 7.23858 65 10V45C65 47.7614 62.7614 50 60 50H10C7.23858 50 5 47.7614 5 45Z" fill="#9945FF"/>
    <circle cx="35" cy="27.5" r="15" fill="#B980FF"/>
    <path d="M35 20V35" stroke="#FFFFFF" stroke-width="3" stroke-linecap="round"/>
    <path d="M27.5 27.5H42.5" stroke="#FFFFFF" stroke-width="3" stroke-linecap="round"/>
    <path d="M10 60L20 55H50L60 60" stroke="#14F195" stroke-width="3" stroke-linecap="round" stroke-linejoin="round"/>
    <path d="M15 65L25 60H45L55 65" stroke="#14F195" stroke-width="3" stroke-linecap="round" stroke-linejoin="round"/>
  </g>
</svg>
