<?xml version="1.0" encoding="UTF-8"?>
<svg width="120" height="120" viewBox="0 0 120 120" fill="none" xmlns="http://www.w3.org/2000/svg">
  <circle cx="60" cy="60" r="60" fill="#FFFFFF"/>
  <g transform="translate(20, 15)">
    <path d="M40 10C46.6274 10 52 15.3726 52 22C52 28.6274 46.6274 34 40 34C33.3726 34 28 28.6274 28 22C28 15.3726 33.3726 10 40 10Z" fill="#9945FF"/>
    <path d="M60 50H20V70C20 75.5228 24.4772 80 30 80H50C55.5228 80 60 75.5228 60 70V50Z" fill="#9945FF"/>
    <path d="M20 40H60V50H20V40Z" fill="#B980FF"/>
    <path d="M15 55C15 52.2386 12.7614 50 10 50C7.23858 50 5 52.2386 5 55V65C5 67.7614 7.23858 70 10 70C12.7614 70 15 67.7614 15 65V55Z" fill="#9945FF"/>
    <path d="M75 55C75 52.2386 72.7614 50 70 50C67.2386 50 65 52.2386 65 55V65C65 67.7614 67.2386 70 70 70C72.7614 70 75 67.7614 75 65V55Z" fill="#9945FF"/>
    <path d="M25 85C25 82.2386 22.7614 80 20 80C17.2386 80 15 82.2386 15 85V90C15 92.7614 17.2386 95 20 95C22.7614 95 25 92.7614 25 90V85Z" fill="#B980FF"/>
    <path d="M65 85C65 82.2386 62.7614 80 60 80C57.2386 80 55 82.2386 55 85V90C55 92.7614 57.2386 95 60 95C62.7614 95 65 92.7614 65 90V85Z" fill="#B980FF"/>
    <circle cx="30" cy="60" r="5" fill="#FFFFFF"/>
    <circle cx="50" cy="60" r="5" fill="#FFFFFF"/>
    <path d="M35 22C35 24.7614 32.7614 27 30 27C27.2386 27 25 24.7614 25 22C25 19.2386 27.2386 17 30 17C32.7614 17 35 19.2386 35 22Z" fill="#FFFFFF"/>
    <path d="M55 22C55 24.7614 52.7614 27 50 27C47.2386 27 45 24.7614 45 22C45 19.2386 47.2386 17 50 17C52.7614 17 55 19.2386 55 22Z" fill="#FFFFFF"/>
    <path d="M0 30C0 27.2386 2.23858 25 5 25H10C12.7614 25 15 27.2386 15 30V35C15 37.7614 12.7614 40 10 40H5C2.23858 40 0 37.7614 0 35V30Z" fill="#14F195"/>
    <path d="M65 30C65 27.2386 67.2386 25 70 25H75C77.7614 25 80 27.2386 80 30V35C80 37.7614 77.7614 40 75 40H70C67.2386 40 65 37.7614 65 35V30Z" fill="#14F195"/>
  </g>
</svg>
