<?xml version="1.0" encoding="UTF-8"?>
<svg width="120" height="120" viewBox="0 0 120 120" fill="none" xmlns="http://www.w3.org/2000/svg">
  <circle cx="60" cy="60" r="60" fill="#FFFFFF"/>
  <g transform="translate(20, 20)">
    <path d="M15 25H55L45 15" stroke="#9945FF" stroke-width="5" stroke-linecap="round" stroke-linejoin="round"/>
    <path d="M65 55H25L35 65" stroke="#9945FF" stroke-width="5" stroke-linecap="round" stroke-linejoin="round"/>
    <circle cx="15" cy="25" r="10" fill="#9945FF"/>
    <circle cx="65" cy="55" r="10" fill="#9945FF"/>
    <circle cx="40" cy="40" r="15" fill="#14F195" fill-opacity="0.3"/>
    <circle cx="40" cy="40" r="12" stroke="#14F195" stroke-width="2"/>
    <path d="M35 40H45M40 35V45" stroke="#14F195" stroke-width="2" stroke-linecap="round"/>
    <path d="M12 25H18" stroke="#FFFFFF" stroke-width="2" stroke-linecap="round"/>
    <path d="M62 55H68M65 52V58" stroke="#FFFFFF" stroke-width="2" stroke-linecap="round"/>
    <path d="M15 25C15 25 25 30 40 30C55 30 65 25 65 25" stroke="#B980FF" stroke-width="2" stroke-linecap="round" stroke-dasharray="4 2"/>
    <path d="M15 55C15 55 25 50 40 50C55 50 65 55 65 55" stroke="#B980FF" stroke-width="2" stroke-linecap="round" stroke-dasharray="4 2"/>
  </g>
</svg>
